<?xml version="1.0" encoding="UTF-8"?>
<svg id="_レイヤー_1" data-name="レイヤー 1" xmlns="http://www.w3.org/2000/svg" xmlns:xlink="http://www.w3.org/1999/xlink" viewBox="0 0 40.92 58.13">
  <defs>
    <style>
      .cls-1 {
        fill: url(#_名称未設定グラデーション_2);
        stroke: #666;
        stroke-miterlimit: 10;
      }
    </style>
    <radialGradient id="_名称未設定グラデーション_2" data-name="名称未設定グラデーション 2" cx="20.71" cy="59.51" fx="20.71" fy="59.51" r="26.58" gradientUnits="userSpaceOnUse">
      <stop offset=".12" stop-color="#999"/>
      <stop offset=".51" stop-color="#999"/>
      <stop offset="1" stop-color="#333"/>
    </radialGradient>
  </defs>
  <path class="cls-1" d="M11.14,52.63c4.72,4.07-14.06-.02-10.08-19.65,2.09-9.61,13.28-14.92,16.01-23.81h0c.81-3.58,1.82-3.78,2.61.19v.02c.43,15.04-20.52,23.73-10.79,40.62.58,1.01,1.38,1.88,2.26,2.64ZM40.27,40.55c-.75-3.17-3.13-6.03-6.14-7.07-.95-5.31.6-11.78,2.49-16.19-5.49.97-7.33,10.85-4.83,15.68-3.11-.58-8.21,2.98-6.52,5.68,2.38-1.01,6.3-2.2,7.66,1.38,2.79,11.33-18.07,10.21-14.54-.89,2.27-5.89,9.56-10.46,11.08-17.05,1.19-3.31.05-10.32-3.83-10.21-.31,1.32.53,6.03-1.41,8.12-3.84,5.74-11.22,8.45-14.4,15.51-10.35,24.89,33.54,31.75,30.44,5.04ZM22.03,16.37c1.12-1.07,1.51-6.15,2.26-7.88.22-1.86,2.37-6.41,1.92-7.88-4.76,1.38-7.6,12.19-4.18,15.75Z"/>
</svg>