<?xml version="1.0" encoding="UTF-8"?>
<svg id="_レイヤー_1" data-name="レイヤー 1" xmlns="http://www.w3.org/2000/svg" xmlns:xlink="http://www.w3.org/1999/xlink" viewBox="0 0 36.19 51.37">
  <defs>
    <style>
      .cls-1 {
        fill: url(#_名称未設定グラデーション_23);
        stroke: url(#_名称未設定グラデーション_10);
        stroke-miterlimit: 10;
      }
    </style>
    <radialGradient id="_名称未設定グラデーション_23" data-name="名称未設定グラデーション 23" cx="18.44" cy="51.13" fx="18.44" fy="51.13" r="29.23" gradientUnits="userSpaceOnUse">
      <stop offset=".12" stop-color="#ffca7f"/>
      <stop offset=".51" stop-color="#ff8347"/>
      <stop offset="1" stop-color="#ff2a00"/>
    </radialGradient>
    <radialGradient id="_名称未設定グラデーション_10" data-name="名称未設定グラデーション 10" cx="18.09" cy="25.68" fx="18.09" fy="25.68" r="22.22" gradientUnits="userSpaceOnUse">
      <stop offset="0" stop-color="#000"/>
      <stop offset=".81" stop-color="#bf0030"/>
    </radialGradient>
  </defs>
  <path class="cls-1" d="M9.88,46.46c4.16,3.59-12.39-.02-8.89-17.32,1.84-8.47,11.71-13.15,14.11-20.98h0c.71-3.15,1.6-3.33,2.3.16h0c.37,13.27-18.09,20.93-9.51,35.81.51.89,1.22,1.66,1.99,2.33ZM35.55,35.81c-.66-2.8-2.76-5.32-5.41-6.23-.84-4.68.53-10.38,2.19-14.27-4.84.86-6.46,9.56-4.25,13.82-2.74-.51-7.24,2.63-5.75,5.01,2.1-.89,5.56-1.94,6.75,1.22,2.46,9.99-15.93,9-12.81-.79,2-5.19,8.43-9.22,9.76-15.02,1.05-2.92.05-9.09-3.37-9-.27,1.16.47,5.31-1.24,7.16-3.38,5.06-9.89,7.45-12.69,13.67-9.12,21.93,29.56,27.99,26.82,4.44ZM19.47,14.5c.98-.94,1.33-5.42,1.99-6.94.2-1.64,2.09-5.65,1.69-6.94-4.2,1.22-6.7,10.74-3.68,13.88Z"/>
</svg>